<?xml version="1.0" encoding="UTF-8" standalone="no"?>
<svg
   xmlns:dc="http://purl.org/dc/elements/1.1/"
   xmlns:cc="http://creativecommons.org/ns#"
   xmlns:rdf="http://www.w3.org/1999/02/22-rdf-syntax-ns#"
   xmlns:svg="http://www.w3.org/2000/svg"
   xmlns="http://www.w3.org/2000/svg"
   id="svg23"
   version="1.1"
   height="1024"
   width="1024">
  <metadata
     id="metadata29">
    <rdf:RDF>
      <cc:Work
         rdf:about="">
        <dc:format>image/svg+xml</dc:format>
        <dc:type
           rdf:resource="http://purl.org/dc/dcmitype/StillImage" />
      </cc:Work>
    </rdf:RDF>
  </metadata>
  <defs
     id="defs27" />
  <style
     id="style2"><![CDATA[   #title path, #tagline path, #letter path, #title polygon, #tagline polygon, #letter polygon{ fill: #275283 !important; } #icon *{ fill: #275283 !important; } ]]></style>
  <g
     id="g7">
    <title
       id="title4">background</title>
    <rect
       x="-1"
       y="-1"
       width="582"
       height="402"
       id="canvas_background"
       fill="none" />
  </g>
  <g
     id="g21">
    <title
       id="title9">Layer 1</title>
    <rect
       id="rect2"
       height="1024"
       width="1024"
       y="0"
       x="0"
       fill="#275283" />
    <path
       id="path4"
       fill="#f8f8f8"
       d="m925.1,674.4l0,-324.8c0,-47.1 -25.1,-90.6 -65.9,-114.1l-281.3,-162.5c-40.8,-23.5 -91,-23.5 -131.8,0l-281.3,162.4c-40.8,23.6 -65.9,67.1 -65.9,114.2l0,324.9c0,47.1 25.1,90.6 65.9,114.1l281.3,162.4c40.8,23.5 91,23.5 131.8,0l281.3,-162.4c40.8,-23.6 65.9,-67.1 65.9,-114.2z" />
    <g
       id="logo-group">
      <g
         id="title">
        <path
           id="path14"
           d="m333.240239,462.052297l-6.37886324,0l-34.0607226,76.305647l-34.0607226,-76.305647l-6.73993097,0l37.551044,84.249137l6.13815142,0l37.55104399,-84.249137z" />
        <path
           id="path16"
           d="m409.704689,500.8069l-54.5212273,0l0,5.41601596l54.5212273,0l0,-5.41601596zm0,-38.7546031l-54.5212273,0l0,5.53637187l54.5212273,0l0,-5.53637187zm-54.5212273,78.7127653l0,5.536372l54.5212273,0l0,-5.53637187l-54.5212273,-1.3e-7z" />
        <path
           id="path18"
           d="m512.773429,462.052297l-6.13815142,0l0,73.1763934l-57.2894132,-73.1763934l-5.17530414,0l0,84.249137l6.13816813,0l0,-73.176393l57.409752,73.176393l5.05494823,0l4e-7,-84.249137z" />
        <path
           id="path20"
           d="m550.552865,462.052297l0,84.249137l6.13815142,0l0,-84.2491371l-6.13815142,1e-7z" />
        <path
           id="path22"
           d="m668.666093,525.23915c3.49033811,-6.25850733 5.29566005,-13.2391501 5.29566005,-21.0622843c0,-8.06384598 -1.92567785,-15.4055565 -5.77708369,-21.9047757c-3.85138913,-6.37886324 -9.02669326,-11.5541674 -15.6462683,-15.2852006c-6.73991425,-3.61067731 -14.2019974,-5.53637187 -22.3861993,-5.53637187c-8.30454109,0 -15.7666242,1.92569456 -22.3861993,5.65672778c-6.73991425,3.73103322 -11.9152184,8.78598144 -15.7666075,15.2852006c-3.85140584,6.49921915 -5.65672778,13.8409297 -5.65672778,21.7844197c0,7.82313416 1.68496603,14.803777 5.17530414,21.0622843c3.49030468,6.25850733 8.30454109,11.3134556 14.5630651,15.1648447c6.13815142,3.85138913 13.1187775,5.8974396 20.9419284,6.37886324l0,15.766624l6.25849061,0l0,-15.766624c7.70279497,-0.481423641 14.5630651,-2.52747411 20.8215725,-6.37886324c6.25850733,-3.85138913 11.0727437,-8.90633735 14.5630651,-15.1648447l-3e-8,9e-8zm-17.9330139,10.3506083c-5.29567676,3.36996548 -11.1931164,5.17530414 -17.6923355,5.53637187l0,-21.6640638l-5.89742288,0l0,21.6640638c-6.61957506,-0.36106773 -12.5170314,-2.28676229 -17.8126914,-5.65672778c-5.29566005,-3.36996548 -9.38776099,-7.70277825 -12.396642,-13.2391501c-3.00891447,-5.41601596 -4.45318539,-11.4338115 -4.45318539,-18.0533865c0,-6.86028688 1.56462683,-13.1187942 4.93459232,-18.775522c3.24962629,-5.65672778 7.70277825,-10.1098965 13.4798787,-13.359506c5.77708369,-3.24960957 12.1559302,-4.93459232 19.2569289,-4.93459232c6.98065951,0 13.359506,1.68498274 19.1365897,4.93459232c5.65672778,3.24960957 10.1098965,7.70277825 13.4798787,13.359506c3.24960957,5.65672778 4.9345756,11.9152351 4.9345756,18.775522c0,6.61957506 -1.56461012,12.6373706 -4.57352459,18.1737424c-3.00889775,5.53637187 -7.10098198,9.86918463 -12.396642,13.2391501l-1.6e-7,1e-8z" />
        <path
           id="path24"
           d="m733.245397,462.052297l-6.13815142,0l-38.754587,84.249137l6.61957506,0l35.1439258,-77.5092062l35.2642817,77.5092062l6.61955834,0l-38.75460248,-84.249137z" />
      </g>
    </g>
  </g>
</svg>
